# AST/ASF file generated using VICON BodyLanguage
# -----------------------------------------------
:version 1.10
:name VICON
:units
  mass 1.0
  length 0.45
  angle deg
:documentation
   .ast/.asf automatically generated from VICON data using
   VICON BodyBuilder and BodyLanguage model FoxedUp or BRILLIANT.MOD
:root
   order TX TY TZ RX RY RZ
   axis XYZ
   position 0 0 0  
   orientation 0 0 0 
:bonedata
  begin
     id 1 
     name lhipjoint
     direction 0.561001 -0.76473 0.316963 
     length 2.4722 
     axis 0 0 0  XYZ
  end
  begin
     id 2 
     name lfemur
     direction 0.34202 -0.939693 0  
     length 7.59403  
     axis 0 0 20  XYZ
    dof rx ry rz
    limits (-160.0 20.0)
           (-70.0 70.0)
           (-60.0 70.0)
  end
  begin
     id 3 
     name ltibia
     direction 0.34202 -0.939693 0   
     length 7.89655   
     axis 0 0 20   XYZ
    dof rx
    limits (-10.0 170.0)
  end
  begin
     id 4 
     name lfoot
     direction 0.061296 -0.168409 0.98381   
     length 2.73287   
     axis -90 7.62852e-016 20   XYZ
    dof rx rz
    limits (-45.0 90.0)
           (-70.0 20.0)
  end
  begin
     id 5 
     name ltoes
     direction 1.53547e-011 -4.21984e-011 1   
     length 1.37057   
     axis -90 7.62852e-016 20   XYZ
    dof rx
    limits (-90.0 20.0)
  end
  begin
     id 6 
     name rhipjoint
     direction -0.559611 -0.765599 0.317323   
     length 2.46939  
     axis 0 0 0  XYZ 
  end
  begin
     id 7 
     name rfemur
     direction -0.34202 -0.939693 0   
     length 7.53712   
     axis 0 0 -20   XYZ
    dof rx ry rz
    limits (-160.0 20.0)
           (-70.0 70.0)
           (-70.0 60.0)
  end
  begin
     id 8 
     name rtibia
     direction -0.34202 -0.939693 0   
     length 8.12549   
     axis 0 0 -20   XYZ
    dof rx
    limits (-10.0 170.0)
 end
 begin
     id 9 
     name rfoot
     direction -0.066984 -0.184037 0.980634   
     length 2.67541  
     axis -90 -7.62852e-016 -20   XYZ
    dof rx rz
    limits (-45.0 90.0)
           (-20.0 70.0)
  end
  begin
     id 10 
     name rtoes
     direction -1.53549e-011 -4.21786e-011 1   
     length 1.34085   
     axis -90 -7.62852e-016 -20   XYZ
    dof rx
    limits (-90.0 20.0)
  end
  begin
     id 11 
     name lowerback
     direction -0.0522728 0.992594 -0.109658   
     length 2.05633   
     axis 0 0 0   XYZ
    dof rx ry rz
    limits (-20.0 45.0)
           (-30.0 30.0)
           (-30.0 30.0)
  end
  begin
     id 12 
     name upperback
     direction 0.00589338 0.999977 0.00335704   
     length 2.05845   
     axis 0 0 0   XYZ
    dof rx ry rz
    limits (-20.0 45.0)
           (-30.0 30.0)
           (-30.0 30.0)
  end
  begin
     id 13 
     name thorax
     direction 0.0292928 0.998059 0.0549487   
     length 2.09281   
     axis 0 0 0   XYZ
    dof rx ry rz
    limits (-20.0 45.0)
           (-30.0 30.0)
           (-30.0 30.0)
  end
  begin
     id 14 
     name lowerneck
     direction 0.0356368 0.980775 0.191858   
     length 1.84767   
     axis 0 0 0   XYZ
    dof rx ry rz
    limits (-20.0 45.0)
           (-30.0 30.0)
           (-30.0 30.0)
  end
  begin
     id 15 
     name upperneck
     direction -0.0227605 0.98931 -0.14404   
     length 1.89582   
     axis 0 0 0   XYZ
    dof rx ry rz
    limits (-20.0 45.0)
           (-30.0 30.0)
           (-30.0 30.0)
  end
  begin
     id 16
     name head
     direction -0.00932985 0.997511 -0.0698904  
     length 1.90213  
     axis 0 0 0   XYZ
    dof rx ry rz
    limits (-20.0 45.0)
           (-30.0 30.0)
           (-30.0 30.0)
  end
  begin
     id 17 
     name lclavicle
     direction 0.873442 0.479511 0.0846686  
     length 3.41193  
     axis 0 0 0   XYZ
    dof ry rz
    limits (-20.0 10.0)
           (0.0 20.0)
  end
  begin
     id 18 
     name lhumerus
     direction 1 -4.4897e-011 -5.62117e-018   
     length 5.59864   
     axis 180 -30 -90   XYZ
    dof rx ry rz
    limits (-60.0 90.0)
           (-90.0 90.0)
           (-90.0 90.0)
  end
  begin
     id 19
     name lradius
     direction 1 -4.48966e-011 -6.26295e-027   
     length 3.59542   
     axis 180 -30 -90   XYZ
    dof rx
    limits (-10.0 170.0)
  end
  begin
     id 20
     name lwrist
     direction 1 -4.48947e-011 -1.74096e-026   
     length 1.79771   
     axis 1.04567e-014 90 90   XYZ
    dof ry
    limits (-180.0 0.0)
 end
  begin
     id 21 
     name lhand
     direction 1 -4.49085e-011 -3.48469e-026   
     length 0.572014   
     axis 2.22196e-014 90 90   XYZ
    dof rx rz
    limits (-90.0 90.0)
           (-45.0 45.0)
  end
  begin
     id 22 
     name lfingers
     direction 1 -4.48884e-011 -6.96135e-026   
     length 0.461173   
     axis 4.44383e-014 90 90   XYZ
    dof rx
    limits (0.0 90.0)
  end
  begin
     id 23
     name lthumb
     direction 0.707107 -6.34976e-011 0.707107   
     length 0.662154   
     axis -90 45 -5.4397e-014   XYZ
    dof rx rz
    limits (-45.0 45.0)
           (-45.0 45.0)
  end
  begin
     id 24 
     name rclavicle
     direction -0.890242 0.443271 0.104786   
     length 3.46753  
     axis 0 0 0   XYZ 
    dof ry rz
    limits (-10.0 20.0)
           (-20.0 0.0)
  end
  begin
     id 25 
     name rhumerus
     direction -1 -4.48963e-011 -5.41723e-018  
     length 5.8094   
     axis 180 30 90   XYZ
    dof rx ry rz
    limits (-90.0 60.0)
           (-90.0 90.0)
           (-90.0 90.0)
  end
  begin
     id 26 
     name rradius
     direction -1 -4.48958e-011 -6.51059e-027   
     length 3.66953   
     axis 180 30 90   XYZ
    dof rx
    limits (-10.0 170.0)
  end
  begin
     id 27 
     name rwrist
     direction -1 -4.48975e-011 -1.74124e-026   
     length 1.83476   
     axis 1.04567e-014 -90 -90   XYZ
    dof ry
    limits (-180.0 0.0)
  end
  begin
     id 28
     name rhand
     direction -1 -4.49013e-011 -3.48326e-026   
     length 0.57843   
     axis 2.22196e-014 -90 -90   XYZ
    dof rx rz
    limits (-90.0 90.0)
           (-45.0 45.0)
  end
  begin
     id 29
     name rfingers
     direction -1 -4.49023e-011 -6.9669e-026   
     length 0.466345   
     axis 4.44383e-014 -90 -90   XYZ
    dof rx
    limits (0.0 90.0)
  end
  begin
     id 30
     name rthumb
     direction -0.707107 -6.34926e-011 0.707107   
     length 0.669581   
     axis -90 -45 5.4397e-014   XYZ
    dof rx rz
    limits (-45.0 45.0)
           (-45.0 45.0)
  end
:hierarchy
  begin
    root lhipjoint rhipjoint lowerback
    lhipjoint lfemur
    lfemur ltibia
    ltibia lfoot
    lfoot ltoes
    rhipjoint rfemur
    rfemur rtibia
    rtibia rfoot
    rfoot rtoes
    lowerback upperback
    upperback thorax
    thorax lowerneck lclavicle rclavicle
    lowerneck upperneck
    upperneck head
    lclavicle lhumerus
    lhumerus lradius
    lradius lwrist
    lwrist lhand lthumb
    lhand lfingers
    rclavicle rhumerus
    rhumerus rradius
    rradius rwrist
    rwrist rhand rthumb
    rhand rfingers
  end

#!OML:ASF H:\SkateBoarding\Project 1\Capture day 1\Session 1\Skater.ASF
:FULLY-SPECIFIED
:DEGREES
17
root 7.15431 19.7073 -25.1395 5.80353 34.2887 1.70478
lowerback 6.95759 -1.42787 -2.50249
upperback -1.72608 -2.11823 0.294812
thorax -5.60127 -0.955369 1.95829
lowerneck -18.5925 -2.41821 0.144987
upperneck 40.0895 -3.50563 0.270826
head 18.101 -1.18429 -0.563866
rclavicle 2.13942e-014 -6.95746e-016
rhumerus -25.8654 6.50637 -87.1243
rradius 43.9972
rwrist -16.0163
rhand -35.296 -3.74742
rfingers 7.12502
rthumb -8.43048 -33.5592
lclavicle 2.13942e-014 -6.95746e-016
lhumerus -40.0829 -14.0481 96.5382
lradius 53.6751
lwrist 29.6973
lhand -23.9095 8.6192
lfingers 7.12502
lthumb 2.56478 38.5835
rfemur -21.3219 -2.65697 23.1906
rtibia 41.0464
rfoot -29.7144 4.80502
rtoes -13.4553
lfemur 0.397642 -0.664522 -18.9778
ltibia 37.3747
lfoot -41.7001 8.82076
ltoes -18.1466
18
root 7.16244 19.7121 -24.9094 5.76746 34.1157 1.67094
lowerback 6.89481 -1.38386 -2.36903
upperback -1.76541 -2.04507 0.317214
thorax -5.61405 -0.922878 1.89724
lowerneck -18.6126 -2.43703 0.123392
upperneck 40.0205 -3.50889 0.22489
head 18.065 -1.19753 -0.582
rclavicle -2.44443e-014 -1.02374e-014
rhumerus -26.0244 6.42475 -87.1886
rradius 43.7574
rwrist -15.9359
rhand -35.4749 -3.86714
rfingers 7.12502
rthumb -8.60306 -33.6719
lclavicle -2.44443e-014 -1.02374e-014
lhumerus -40.3722 -14.0028 96.4663
lradius 53.6871
lwrist 29.6792
lhand -23.789 8.53923
lfingers 7.12502
lthumb 2.68112 38.5021
rfemur -21.1413 -2.66735 23.2359
rtibia 40.8465
rfoot -29.4046 5.12699
rtoes -13.2377
lfemur 0.00553168 -0.961529 -18.9226
ltibia 38.2885
lfoot -41.1847 8.1972
ltoes -16.4346
19
root 7.1657 19.721 -24.6719 5.78172 34.0176 1.75569
lowerback 6.80498 -1.36901 -2.45312
upperback -1.76976 -2.02773 0.368712
thorax -5.56374 -0.911418 1.99328
lowerneck -18.664 -2.43066 0.0657286
upperneck 39.9325 -3.45829 0.177144
head 18.0273 -1.19551 -0.584002
rclavicle -3.06004e-014 -3.27995e-015
rhumerus -26.0566 6.47791 -87.1659
rradius 43.4298
rwrist -15.9762
rhand -35.3451 -3.81548
rfingers 7.12502
rthumb -8.47786 -33.6253
lclavicle -3.06004e-014 -3.27995e-015
lhumerus -40.5844 -13.9431 96.4124
lradius 53.7051
lwrist 29.5475
lhand -23.6966 8.5269
lfingers 7.12502
lthumb 2.77041 38.4887
rfemur -20.8647 -2.63764 23.1951
rtibia 40.5634
rfoot -29.2613 5.31424
rtoes -13.1113
lfemur -0.430308 -1.26005 -18.9138
ltibia 39.2995
lfoot -40.6363 7.91855
ltoes -16.1879
20
root 7.16212 19.7307 -24.43 5.58139 33.8088 1.63844
lowerback 6.82501 -1.30492 -2.48951
upperback -1.74169 -1.93955 0.48087
thorax -5.54519 -0.865268 2.12076
lowerneck -18.7407 -2.43227 0.00697737
upperneck 39.8617 -3.41906 0.12681
head 18.0065 -1.19794 -0.589874
rclavicle -1.98288e-014 -1.11319e-014
rhumerus -26.1472 6.49357 -87.1459
rradius 43.123
rwrist -15.9588
rhand -35.3669 -3.85124
rfingers 7.12502
rthumb -8.49882 -33.6602
lclavicle -1.98288e-014 -1.11319e-014
lhumerus -40.8094 -13.9172 96.3395
lradius 53.7866
lwrist 29.4154
lhand -23.6193 8.5473
lfingers 7.12502
lthumb 2.84498 38.5081
rfemur -20.4235 -2.28744 23.3575
rtibia 40.1795
rfoot -29.1906 5.36993
rtoes -12.8952
lfemur -0.7833 -1.43802 -18.6509
ltibia 40.3577
lfoot -39.9504 7.30421
ltoes -15.4313
21
root 7.17241 19.7468 -24.2072 5.6372 33.7072 1.63054
lowerback 6.76442 -1.25179 -2.29909
upperback -1.78829 -1.84905 0.51026
thorax -5.56905 -0.82569 2.03344
lowerneck -18.7318 -2.46587 -0.0767388
upperneck 39.7418 -3.44057 0.132822
head 17.9373 -1.22113 -0.575293
rclavicle -6.89783e-014 -1.98785e-015
rhumerus -26.1987 6.39937 -87.0144
rradius 42.7755
rwrist -16.0852
rhand -35.441 -4.17145
rfingers 7.12502
rthumb -8.57035 -33.9775
lclavicle -6.89783e-014 -1.98785e-015
lhumerus -41.0406 -13.9874 96.3172
lradius 53.8994
lwrist 29.1748
lhand -23.3897 8.44791
lfingers 7.12502
lthumb 3.06677 38.4056
rfemur -20.2358 -2.26773 23.3386
rtibia 39.7196
rfoot -28.9142 5.47685
rtoes -12.8293
lfemur -1.48641 -1.86437 -18.6112
ltibia 41.4987
lfoot -39.0925 7.09103
ltoes -14.8586
22
root 7.17401 19.7613 -23.9747 5.42379 33.5189 1.39405
lowerback 6.80071 -1.15727 -2.08232
upperback -1.7712 -1.69916 0.601118
thorax -5.58243 -0.757336 1.99032
lowerneck -18.772 -2.50113 -0.0854201
upperneck 39.6481 -3.47329 0.0861425
head 17.8926 -1.24417 -0.601817
rclavicle 5.0454e-014 7.55382e-015
rhumerus -26.2605 6.19442 -86.9062
rradius 42.3862
rwrist -16.1244
rhand -35.4873 -4.29876
rfingers 7.12502
rthumb -8.61503 -34.103
lclavicle 5.0454e-014 7.55382e-015
lhumerus -41.2387 -14.1481 96.2663
lradius 54.0558
lwrist 28.9793
lhand -23.2937 8.37469
lfingers 7.12502
lthumb 3.15945 38.331
rfemur -19.8198 -1.95405 23.5634
rtibia 39.1715
rfoot -28.7419 5.48545
rtoes -12.4864
lfemur -2.01293 -2.20108 -18.2648
ltibia 42.6792
lfoot -38.0982 6.66608
ltoes -13.9438
23
root 7.17878 19.7802 -23.7471 5.25231 33.3442 1.2078
lowerback 6.84439 -1.06996 -1.86349
upperback -1.75649 -1.55832 0.697915
thorax -5.60143 -0.693298 1.95326
lowerneck -18.7843 -2.52452 -0.151953
upperneck 39.5443 -3.47647 0.0702691
head 17.8376 -1.25994 -0.597134
rclavicle -8.49929e-014 7.95139e-016
rhumerus -26.3477 6.02068 -86.7581
rradius 42.0024
rwrist -16.0889
rhand -35.4561 -4.45979
rfingers 7.12502
rthumb -8.5849 -34.2653
lclavicle -8.49929e-014 7.95139e-016
lhumerus -41.3086 -14.255 96.2272
lradius 54.1657
lwrist 28.8073
lhand -23.0732 8.32201
lfingers 7.12502
lthumb 3.37246 38.2751
rfemur -19.4322 -1.77751 23.7173
rtibia 38.626
rfoot -28.5219 5.56258
rtoes -12.3
lfemur -2.66042 -2.59012 -17.9865
ltibia 43.9213
lfoot -36.8924 6.59813
ltoes -13.1276
24
root 7.18874 19.7997 -23.5269 5.10816 33.1173 1.00856
lowerback 6.89211 -0.9841 -1.51907
upperback -1.73274 -1.40919 0.769091
thorax -5.61649 -0.630015 1.81766
lowerneck -18.8534 -2.54407 -0.202191
upperneck 39.4379 -3.47657 0.0420723
head 17.7954 -1.27381 -0.601494
rclavicle -1.06598e-014 1.39149e-015
rhumerus -26.3137 5.88985 -86.5704
rradius 41.5489
rwrist -16.2337
rhand -35.4563 -4.45187
rfingers 7.12502
rthumb -8.58515 -34.2573
lclavicle -1.06598e-014 1.39149e-015
lhumerus -41.4509 -14.3436 96.1563
lradius 54.4207
lwrist 28.5223
lhand -22.9137 8.2377
lfingers 7.12502
lthumb 3.52648 38.1883
rfemur -19.0622 -1.64967 23.8444
rtibia 37.9644
rfoot -28.1553 5.6633
rtoes -12.0896
lfemur -3.36646 -3.02483 -17.7187
ltibia 45.2163
lfoot -35.6834 6.53731
ltoes -12.8361
25
root 7.19154 19.804 -23.3058 4.88481 32.9536 0.782361
lowerback 6.98051 -0.888691 -1.25946
upperback -1.70104 -1.25373 0.864233
thorax -5.64312 -0.560176 1.7545
lowerneck -18.8536 -2.55997 -0.244883
upperneck 39.3374 -3.48328 0.0415876
head 17.7395 -1.28473 -0.594344
rclavicle -5.28022e-014 -7.95139e-016
rhumerus -26.2848 5.65878 -86.3672
rradius 40.9726
rwrist -16.1639
rhand -35.4131 -4.77258
rfingers 7.12502
rthumb -8.54341 -34.5797
lclavicle -5.28022e-014 -7.95139e-016
lhumerus -41.6704 -14.436 96.0637
lradius 54.7535
lwrist 28.3938
lhand -22.4698 8.04172
lfingers 7.12502
lthumb 3.95508 37.9848
rfemur -18.6354 -1.54222 24.0314
rtibia 37.2963
rfoot -27.7424 5.78562
rtoes -11.6647
lfemur -3.51485 -3.65026 -17.329
ltibia 46.5303
lfoot -34.8867 2.20842
ltoes -3.43115
26
root 7.18674 19.8303 -23.0688 4.29907 32.482 0.0781126
lowerback 7.1408 -0.691028 -0.836249
upperback -1.6027 -0.937649 1.11469
thorax -5.64569 -0.414243 1.74236
lowerneck -18.9177 -2.56151 -0.248128
upperneck 39.2467 -3.46301 -0.010124
head 17.7032 -1.28594 -0.613585
rclavicle 2.93953e-014 -8.54774e-015
rhumerus -26.1815 5.47497 -86.1179
rradius 40.3702
rwrist -16.0508
rhand -35.4276 -5.14239
rfingers 7.12502
rthumb -8.55746 -34.949
lclavicle 2.93953e-014 -8.54774e-015
lhumerus -41.8778 -14.5819 96.0251
lradius 55.1997
lwrist 28.1764
lhand -22.6596 8.17086
lfingers 7.12502
lthumb 3.77182 38.1172
rfemur -18.0265 -0.890945 24.7132
rtibia 36.5392
rfoot -27.593 5.52579
rtoes -11.5265
lfemur -4.15993 -3.73981 -16.4561
ltibia 47.8247
lfoot -33.094 3.11309
ltoes -4.9206
